<svg xmlns="http://www.w3.org/2000/svg" width="512" height="512" viewBox="0 0 512 512" version="1.1">
	<path d="M 285.500 15.536 C 276 21.113, 271.743 30.304, 267.981 53.364 C 264.620 73.961, 265.840 89.338, 271.759 100.981 C 278.140 113.533, 290.823 114.295, 298.553 102.591 C 305.906 91.459, 313 63.484, 313 45.623 C 313 28.974, 309.342 20.537, 300.029 15.705 C 293.775 12.460, 290.800 12.425, 285.500 15.536 M 138.024 16.965 C 133.337 18.145, 130.999 21.274, 131.005 26.361 C 131.008 28.637, 132.781 37.250, 134.945 45.500 C 144.132 80.521, 154.873 105.731, 165.030 116.111 C 168.199 119.350, 171.499 122, 172.363 122 C 173.226 122, 176.213 124.025, 179 126.500 C 181.787 128.975, 184.745 131, 185.573 131 C 187.730 131, 194.198 127.547, 196.212 125.320 C 201.685 119.267, 202.606 105.393, 198.566 89.859 C 190.301 58.087, 172.557 28.064, 157.057 19.628 C 151.481 16.593, 143.782 15.516, 138.024 16.965 M 413.500 57.421 C 408.382 59.712, 404.308 65.058, 398.578 77 C 393.794 86.971, 392.510 88.832, 388.919 91 C 380.975 95.796, 369.717 109.968, 363.790 122.634 C 360.162 130.387, 360.314 135.853, 364.325 141.915 C 367.455 146.645, 374.088 149.581, 379.394 148.586 C 384.423 147.642, 391.760 142.334, 396.790 136 C 399.193 132.975, 403.260 128.074, 405.829 125.109 C 422.562 105.797, 435.565 87.453, 438.970 78.352 C 442.577 68.711, 440.014 60.575, 432.364 57.379 C 428.191 55.635, 417.436 55.659, 413.500 57.421 M 48.173 85.484 C 34.145 89.862, 27.740 103, 33.871 114.819 C 41.206 128.961, 70.390 150.886, 92.549 158.904 C 103.815 162.981, 109.380 163.613, 116.297 161.602 C 129.959 157.630, 134.354 147.586, 128.157 134.500 C 120.657 118.665, 100.485 100.041, 80.515 90.516 C 66.678 83.916, 57.682 82.517, 48.173 85.484 M 245.500 117.115 C 226.114 118.935, 211.731 123.061, 194.865 131.642 C 181.096 138.648, 169.917 146.967, 157.500 159.448 C 142.175 174.853, 130.070 194.246, 122.201 216 C 118.067 227.430, 116.997 234.127, 117.017 248.434 C 117.074 287.911, 124.302 307.930, 150.060 339.953 C 164.877 358.374, 178.523 370.689, 191.243 377.119 C 197.503 380.283, 206.760 383, 211.282 383 C 212.855 383, 214.806 383.663, 215.616 384.474 C 220.392 389.250, 246.327 391.262, 273.500 388.965 C 310.941 385.800, 333.595 375.490, 358.759 350.162 C 369.298 339.555, 380.210 323.852, 384.943 312.483 C 388.738 303.366, 394.540 280.893, 396.073 269.374 C 396.697 264.691, 397.011 255.604, 396.771 249.180 C 396.395 239.087, 395.969 236.730, 393.633 231.834 C 392.102 228.624, 389.637 219.837, 387.946 211.562 C 384.560 194.990, 382.671 188.806, 379.680 184.500 C 376.265 179.584, 355.210 156.865, 349.387 151.812 C 346.415 149.234, 340.256 144.873, 335.700 142.121 C 331.144 139.369, 326.535 136.144, 325.459 134.955 C 322.144 131.292, 315.892 128.348, 306.618 126.084 C 301.733 124.892, 294.931 122.604, 291.503 121.001 C 281.135 116.154, 267.770 115.025, 245.500 117.115 M 444 179.543 C 434.925 181.886, 425.867 184.506, 423.871 185.365 C 408.357 192.038, 405.064 209.401, 417.168 220.702 C 422.405 225.591, 424.638 225.879, 450.500 224.995 C 477.250 224.082, 482.579 223.064, 488.679 217.709 C 492.361 214.475, 497 205.668, 497 201.910 C 497 198.007, 491.583 188.461, 486.459 183.333 C 480.598 177.467, 474.064 174.905, 465.568 175.141 C 462.781 175.218, 453.075 177.199, 444 179.543 M 61 196.630 C 39.413 199.722, 24.549 205.180, 20.376 211.549 C 18.038 215.118, 18.901 225.021, 22.158 232 C 28.875 246.389, 44.343 254.933, 64.100 255.169 C 82.928 255.393, 96.566 248.718, 102.638 236.308 C 104.860 231.766, 105.360 229.362, 105.381 223.126 C 105.410 214.646, 104.246 211.618, 98.836 206.093 C 91.567 198.671, 75.250 194.590, 61 196.630 M 422.421 296.834 C 415.194 300.227, 411.751 307.640, 415.250 312.273 C 417.062 314.673, 447.914 329.370, 458.668 332.956 C 469.290 336.499, 478.265 337.694, 483.101 336.211 C 484.970 335.638, 488.175 334.887, 490.222 334.544 C 493.220 334.041, 494.268 333.237, 495.610 330.409 C 497.236 326.983, 497.210 326.769, 494.518 321.447 C 493.001 318.449, 490.217 314.642, 488.332 312.986 C 483.566 308.802, 472.748 303.537, 460.160 299.275 C 450.899 296.140, 447.991 295.618, 438 295.293 C 428.242 294.976, 425.882 295.209, 422.421 296.834 M 69.539 330.112 C 51.266 332.774, 30.988 343.891, 22.864 355.698 C 19.437 360.678, 15.012 371.909, 15.004 375.644 C 14.998 378.925, 20.093 383.677, 25.070 385.032 C 30.431 386.491, 43.220 385.775, 51.880 383.531 C 71.059 378.561, 95.413 362.903, 100.137 352.505 C 104.783 342.278, 100.910 334.597, 89.301 331.011 C 82.383 328.874, 79.070 328.724, 69.539 330.112 M 132.279 392.548 C 122.855 397.245, 114.400 409.270, 113.231 419.642 C 112.829 423.213, 111.658 425.213, 106.729 430.749 C 99.814 438.515, 93.076 448.592, 90.666 454.770 C 88.557 460.175, 88.524 469.194, 90.595 473.559 C 92.595 477.773, 99.450 484.157, 105.151 487.114 C 113.106 491.240, 123.578 489.418, 129.680 482.847 C 133.603 478.622, 138.680 469.218, 142.539 459.026 C 145.388 451.503, 147.626 447.486, 151.549 442.851 C 161.336 431.289, 165.879 422.101, 165.956 413.718 C 166.116 396.310, 147.815 384.806, 132.279 392.548 M 396.500 393.293 C 393.918 394.751, 391.511 397.316, 389.710 400.526 C 387.170 405.054, 386.955 406.217, 387.306 413.500 C 387.775 423.215, 393.080 438.247, 399.305 447.500 C 405.286 456.390, 418.449 469.023, 425.666 472.800 C 437.063 478.766, 452.815 479.035, 461.315 473.410 C 476.916 463.086, 467.357 437.282, 436.525 406.488 C 426.661 396.636, 424.816 395.239, 419 393.228 C 410.329 390.229, 401.880 390.253, 396.500 393.293 M 281.500 408.871 C 277.237 411.518, 274.535 414.730, 271.546 420.702 C 265.604 432.576, 262.718 453.609, 264.987 468.500 C 267.274 483.510, 271.968 492.143, 280.151 496.388 C 287.076 499.981, 290.816 499.818, 294.753 495.750 C 300.522 489.790, 302.994 480.602, 305.028 457.563 C 307.919 424.821, 302.343 406.993, 289.215 407.004 C 286.361 407.006, 283.316 407.743, 281.500 408.871" stroke="none" fill="black" fill-rule="evenodd"/>
</svg>